<svg xmlns="http://www.w3.org/2000/svg" fill-rule="evenodd" stroke-linejoin="round" stroke-miterlimit="2" clip-rule="evenodd" viewBox="0 0 11588 10354">
  <defs/>
  <path fill="none" d="M0 0h11587.6v10353.2H0z"/>
  <clipPath id="a">
    <path d="M0 0h11587.6v10353.2H0z"/>
  </clipPath>
  <g clip-path="url(#a)">
    <path fill="#fff" fill-rule="nonzero" d="M10601.7 2021.9H1018.37c-544.3 0-989.58-445.33-989.58-989.58 0-544.3 445.29-989.59 989.58-989.59h9583.33c544.3 0 989.58 445.3 989.58 989.59 0 544.25-445.33 989.58-989.58 989.58zm0 4166.67H1018.37c-544.3 0-989.58-445.33-989.58-989.58 0-544.3 445.29-989.59 989.58-989.59h9583.33c544.3 0 989.58 445.34 989.58 989.59 0 544.29-445.33 989.58-989.58 989.58zm0 4166.67H1018.37c-544.3 0-989.58-445.33-989.58-989.58 0-544.3 445.29-989.59 989.58-989.59h9583.33c544.3 0 989.58 445.34 989.58 989.59 0 544.29-445.33 989.58-989.58 989.58z"/>
  </g>
</svg>
