<?xml-stylesheet type="text/css" href="../../App/style.css" ?>
<svg xmlns="http://www.w3.org/2000/svg" fill-rule="evenodd" stroke-linejoin="round" stroke-miterlimit="2" clip-rule="evenodd" viewBox="0 0 2429 3045">
  <defs/>
  <path fill="none" d="M0 0h2428.43v3044.84H0z"/>
  <clipPath id="a">
    <path d="M0 0h2428.43v3044.84H0z"/>
  </clipPath>
  <g fill="white" clip-path="url(#a)">
    <path fill-rule="nonzero" d="M2424.95 1976.1c-41.45.39-75.2 42.34-115.88 53.48v603.16c0 80.61 18.75 182.65-42.87 245.75-46.41 47.54-103.64 45.43-165.12 45.43H321.31c-60.73 0-120.6 1.28-165.08-47.8-48.07-53.07-39.93-120.63-39.93-186.92V689.56h1937.25c44.48 0 109.1 6.18 109.88-56.46.77-62.12-62.37-59.42-106.9-59.42H116.3V327.07c0-49.53-4.37-99.15 24.07-142.62 46.5-71.13 120.54-68.34 195.8-68.34H778.9v317.92c0 40.92 10.46 88.81 62.4 85.84 53.3-3.03 53.48-54.88 53.48-94.75V116.1h1197.4c73.99 0 142.77-1.7 190.79 65.37 26.56 37.1 26.12 81.32 26.12 124.79v1099.36c0 22.55-7.61 61.8 1.78 82.39 4.07 8.86 16.88 12.39 24.96 16.4 21.66 10.76 47.66 36.9 71.3 40.11 29.1 3.99 17.84-69.52 17.84-88.4V362.74c0-133.59-8.15-267.98-145.6-334.98C2213.56-4.34 2142.54.24 2071.38.24H359.95C247.43.24 148.43.5 66.06 89.38-.94 161.67.43 252.9.43 344.9v2326.48c0 81.71-6.9 163.99 35.27 237.7 100.25 175.22 333.1 130.74 502.52 130.74h1553.96c85.93 0 172.99-.48 240.67-62.67 101.47-93.26 92.11-211.94 92.11-338.45V1976.1m-2065-1724.95c-101.8 13.55-83.98 164.97 17.82 152.64 95.64-11.62 77.79-165.32-17.83-152.64m1108.27 21.04c-55.23 12.78-57.85 90.41-5.94 109.67 27.51 10.19 63.17 4.63 92.1 4.63h154.51c26.71 0 57.76 4.34 83.2-5.37 49.17-18.84 45.54-95.35-5.95-108.84-33.84-8.88-77.96-1.66-112.9-1.66-63.77 0-142.98-12.78-205.02 1.57m514.02.32c-45.81 13.23-56.95 79.19-14.82 103.97 18.36 10.81 38.9 10.01 59.4 10.01 39.6 0 89.84 8.17 127.76-4.37 46.91-15.5 50.8-80.55 8.91-104.46-16.34-9.33-35.39-7.05-53.48-7.05-38.87 0-90.39-8.91-127.76 1.9M463.95 1488.83c-51.73-14.53-108.16-1.07-129.34 53.49-15.78 40.58-7.34 93.83-7.34 136.67v237.7c0 37.89-6.6 82.87 7.34 118.85 21.33 55.09 77.37 70 129.34 53.48 20.5 86.38 87.77 172.54 145.11 237.7 291.75 331.41 813.47 356.64 1141.43 65.52 76.12-67.6 138.88-149.96 184.93-240.82 16.22-32 37.74-70.83 40.88-106.96h-83.19c-10.37 0-25.61-2.68-34.85 3.06-19.43 12.03-33.28 62.8-44.93 83.1-31.79 55.38-70.9 106.6-116.32 151.53-118.5 117.13-289.31 197.06-457.57 199.08-117.37 1.4-230.3-20.8-335.75-73.54-89.61-44.84-169.27-109.61-231.76-187.93-258.44-324.04-168.05-806.84 184.22-1022.67 85.48-52.38 180.26-82.48 279.3-95.35 84.91-11.05 172.86-3.24 255.52 19.1 84.15 22.77 165.32 61.42 234.73 114.4 103.64 79.12 173.55 178.6 228.78 295.2 31.47-32.45 53.52-54.41 101.03-56.46-25.62-88.9-95.47-174.47-157.21-240.67-301.7-323.48-812.37-326.78-1135.28-36.16-79.8 71.81-173.55 184.21-199.07 291.68m1236.03 421.92H1697c-7.54 7.52-14.91 15.78-23.77 21.84-44.03 30.19-76.12-29.06-106.96-49.77-26.03-17.5-58.86-22.37-89.14-15.06-45.9 11.08-71.1 76.5-118.85 72.38-26.62-2.3-43.91-30.43-62.4-46.68-26.91-23.65-59.92-32.63-95.07-26.83-50.16 8.26-78.03 79.3-127.76 73.27-26.54-3.21-44.13-29.92-62.4-46.71-19.88-18.24-46.89-29.95-74.28-29.2-30.78.82-57.94 14.5-80.23 35.14-19.1 17.71-36.21 43.53-65.36 41-47.22-4.07-69.02-69.31-121.82-73.95-.36-41.39-6.42-83.22-2.47-124.8 9.5-99.85 46.23-195.5 105.66-276.32 166.09-225.78 487.34-290.43 725.78-142.44 106.02 65.82 173.9 159.2 225.82 270.2l50.5-23.76c-10.24-68.31-72.08-145.27-118.72-193.1-148.8-152.55-357.65-222.2-567.63-179.94-354.5 71.34-561.24 451.63-448.66 789.01 35 104.91 99.87 198.21 184.22 269.5 189.8 160.44 477.95 187.57 692.3 59.71 88.54-52.8 164.34-124.08 216.87-213.33 12.87-21.87 43.53-62.75 41.36-89.14-3.95-48.22-43.74-70.77-74.01-101.02m-332.78-446.43c-36.25 13.58-14.77 66.32 20.68 52.03 32.38-13.08 10.99-63.88-20.68-52.03m564.53 155.25v2.97c-42.28 0-116.77-14.3-154.5 6.36-34.2 18.72-31.38 74.64 8.91 82.78v2.97c-19.82 0-40.4-1.93-56.15 12.54-38.04 35.06-.05 79.2 41.3 79.57v2.97c-34.59 11.8-40.86 60.58-8.86 80.2 20.71 12.7 56.66 5.96 80.17 5.96v2.97c-37.74 16.64-45.43 72.95 0 87.21 18.62 5.82 43.02 1.93 62.4 1.93h130.73c76.09 0 167 13.5 240.67-7.22 25.34-7.13 49.44-17.74 71.3-32.47 13.29-8.95 25.53-24.1 41.6-27.76 30.81-6.95 6.13-.89 37.72-.89l-2.97-317.92c-31.59 0-6.9 6.06-37.72-.9-33.57-7.6-63.5-43.46-98.05-55.31-57.34-19.67-121.46-12.13-181.24-12.13h-118.85c-17.48 0-39.97-3.68-56.46 3-37.67 15.28-36.96 68.55 0 83.17m-674.47-60.58c-61.35 3.8-55.47 99.47 5.94 95.6 61.92-3.91 56.07-99.44-5.94-95.6m83.2 136.43c-84.86 19.58-51.64 149.6 32.68 130.11 84.86-19.6 51.82-149.6-32.68-130.1m392.2 265.83c-17.56 64.39-55.44 127.32-97.81 178.27-219.46 263.94-637.66 258.98-851.65-8.9-46.08-57.68-79.27-125.25-99.39-196.11 50.57 35.62 88.9 87.8 157.48 53.51 35.48-17.74 57.52-68.6 101.02-65.13 28.32 2.29 46.05 29.27 65.37 47 18.5 17 40.4 26.63 65.37 29.1 66.16 6.5 84.29-68.5 139.64-75.8 35.42-4.67 51.23 22.67 74.28 43.5 20.57 18.5 46.39 31.1 74.29 32.56 63.1 3.33 81.14-66.23 133.7-75.64 45.31-8.12 66.88 41.83 101.02 61.53 51.94 30 92.47 3.74 136.68-23.89"/>
  </g>
</svg>
