<?xml-stylesheet type="text/css" href="../../App/style.css" ?>
<svg xmlns="http://www.w3.org/2000/svg" fill-rule="evenodd" stroke-linejoin="round" stroke-miterlimit="2" clip-rule="evenodd" viewBox="0 0 1000 1285">
  <defs/>
  <g class="svg tumbleDryer" fill-rule="nonzero">
    <path d="M928.75 0C953.3 0 973 19.8 973 43.93V194.5H2.42V44.25C2.42 20.14 22.12.44 46.35.44L928.75 0zM288.08 146.37c26.55 0 48.23-22.02 48.23-48.69 0-26.55-21.68-48.34-48.23-48.34-26.67 0-48.24 21.79-48.24 48.34 0 26.67 21.57 48.69 48.24 48.69zm-142.17 0c27 0 48.24-22.02 48.24-48.69a48.16 48.16 0 00-48.24-48.34c-26.55 0-48.23 21.79-48.23 48.34 0 26.67 21.68 48.69 48.23 48.69zM0 1280.9V306.55a44.03 44.03 0 0143.93-43.92h882.74a43.97 43.97 0 0143.92 43.93v974.67L0 1280.9zm480.25-221.6c172.6 0 312.65-140.06 312.65-312.64C792.9 574.08 652.83 434 480.26 434c-172.7 0-312.54 140.07-312.54 312.65 0 172.58 139.83 312.66 312.53 312.66z"/>
    <path d="M733.38 825.52a255.99 255.99 0 0010.07-71.9c0-144.93-117.93-262.42-262.86-262.42-145.15 0-262.75 117.49-262.75 262.41a272 272 0 0011.4 77.22v-.44c16.82-18.14 40.71-29.65 67.59-29.65 23.33 0 44.25 8.41 60.5 22.9h-.32a91.38 91.38 0 0160.85-22.9c24 0 46.02 9.18 62.4 24.78v-.32c16.25-15.28 38.04-24.46 62.27-24.46 24.9 0 47.8 9.84 63.96 25.89v-.33c16.25-16.04 38.71-25.56 63.72-25.56a91.03 91.03 0 0162.85 25.1l.32-.32z"/>
  </g>
</svg>
