<?xml version="1.0" encoding="UTF-8" standalone="no"?>
<svg
   xmlns:dc="http://purl.org/dc/elements/1.1/"
   xmlns:cc="http://creativecommons.org/ns#"
   xmlns:rdf="http://www.w3.org/1999/02/22-rdf-syntax-ns#"
   xmlns:svg="http://www.w3.org/2000/svg"
   xmlns="http://www.w3.org/2000/svg"
   xmlns:sodipodi="http://sodipodi.sourceforge.net/DTD/sodipodi-0.dtd"
   xmlns:inkscape="http://www.inkscape.org/namespaces/inkscape"
   version="1.1"
   id="svg62"
   width="581.85016"
   height="655.85498"
   viewBox="0 0 581.85014 655.855"
   sodipodi:docname="lav_express.svg"
   inkscape:version="1.0rc1 (09960d6, 2020-04-09)">
  <metadata
     id="metadata68">
    <rdf:RDF>
      <cc:Work
         rdf:about="">
        <dc:format>image/svg+xml</dc:format>
        <dc:type
           rdf:resource="http://purl.org/dc/dcmitype/StillImage" />
        <dc:title></dc:title>
      </cc:Work>
    </rdf:RDF>
  </metadata>
  <defs
     id="defs66" />
  <sodipodi:namedview
     inkscape:document-rotation="0"
     pagecolor="#ffffff"
     bordercolor="#666666"
     borderopacity="1"
     objecttolerance="10"
     gridtolerance="10"
     guidetolerance="10"
     inkscape:pageopacity="0"
     inkscape:pageshadow="2"
     inkscape:window-width="1680"
     inkscape:window-height="1005"
     id="namedview64"
     showgrid="false"
     fit-margin-top="0"
     fit-margin-left="0"
     fit-margin-right="0"
     fit-margin-bottom="0"
     inkscape:zoom="0.34337894"
     inkscape:cx="790.79618"
     inkscape:cy="38.04646"
     inkscape:window-x="240"
     inkscape:window-y="1223"
     inkscape:window-maximized="0"
     inkscape:current-layer="g70"
     inkscape:snap-grids="false"
     inkscape:snap-to-guides="false"
     inkscape:snap-others="true">
    <sodipodi:guide
       position="-331.5412,915.88732"
       orientation="1124.6397,0"
       id="guide472" />
    <sodipodi:guide
       position="-331.5412,-208.75243"
       orientation="0,1430.1777"
       id="guide474" />
    <sodipodi:guide
       position="1098.6366,-208.75243"
       orientation="-1124.6397,0"
       id="guide476" />
    <sodipodi:guide
       position="1098.6366,915.88732"
       orientation="0,-1430.1777"
       id="guide478" />
  </sodipodi:namedview>
  <g
     inkscape:groupmode="layer"
     inkscape:label="Image"
     id="g70"
     transform="translate(-2867.5458,-242.26918)">
    <path
       style="fill:#fffff9;fill-opacity:1;stroke:none;stroke-width:0.640001"
       d="m 3389.876,667.91773 c -8.928,0.083 -16.1984,9.12 -24.96,11.52 v 129.91999 c 0,17.3632 4.0384,39.3408 -9.2352,52.9344 -9.9968,10.24 -22.3232,9.7856 -35.5648,9.7856 h -58.24 -259.84 -65.28 c -13.0816,0 -25.9776,0.2752 -35.5584,-10.2976 -10.3552,-11.4304 -8.6016,-25.984 -8.6016,-40.2624 v -84.48 -346.24001 h 337.92 79.36 c 9.5808,0 23.5008,1.3312 23.6672,-12.16 0.1664,-13.3824 -13.4336,-12.8 -23.0272,-12.8 h -79.36 -338.56 v -53.12 c 0,-10.6688 -0.9408,-21.3568 5.184,-30.72 10.016,-15.3216 25.9648,-14.72 42.176,-14.72 h 95.36 v 68.48 c 0,8.8128 2.2528,19.1296 13.44,18.4896 11.4816,-0.6528 11.52,-11.8208 11.52,-20.4096 v -66.56 h 220.16 37.76 c 15.936,0 30.752,-0.3648 41.0944,14.08 5.7216,7.9936 5.6256,17.5168 5.6256,26.88 v 36.48 158.08002 42.24 c 0,4.8576 -1.6384,13.312 0.384,17.7472 0.8768,1.9072 3.6352,2.6688 5.376,3.5328 4.6656,2.3168 10.2656,7.9488 15.36,8.64 6.2656,0.8576 3.84,-14.976 3.84,-19.04 v -62.72 -172.80002 c 0,-28.7744 -1.7536,-57.7216 -31.36,-72.1536 -14.176,-6.912 -29.472,-5.9264 -44.8,-5.9264 h -66.56 -252.16 -49.92 c -24.2368,0 -45.5616,0.058 -63.3024,19.2 -14.432,15.5712 -14.1376,35.2256 -14.1376,55.04 v 87.04 328.96001 85.12 c 0,17.6 -1.4848,35.3216 7.5968,51.2 21.5936,37.7408 71.7504,28.16 108.2432,28.16 h 279.04 55.68 c 18.5088,0 37.2608,-0.1024 51.84,-13.4976 21.856,-20.0896 19.84,-45.6512 19.84,-72.9024 V 667.91773 m -444.8,-371.55202 c -21.9264,2.9184 -18.0864,35.5328 3.84,32.8768 20.6016,-2.5024 16.7552,-35.6096 -3.84,-32.8768 m 238.72,4.5312 c -11.8976,2.752 -12.4608,19.4752 -1.28,23.6224 5.9264,2.1952 13.6064,0.9984 19.84,0.9984 h 33.28 c 5.7536,0 12.4416,0.9344 17.92,-1.1584 10.592,-4.0576 9.8112,-20.5376 -1.28,-23.4432 -7.2896,-1.9136 -16.7936,-0.3584 -24.32,-0.3584 -13.7344,0 -30.7968,-2.752 -44.16,0.3392 m 110.72,0.07 c -9.8688,2.848 -12.2688,17.056 -3.1936,22.3936 3.9552,2.3296 8.3776,2.1568 12.7936,2.1568 8.5312,0 19.3536,1.76 27.52,-0.9408 10.1056,-3.3408 10.944,-17.3504 1.92,-22.5024 -3.52,-2.0096 -7.6224,-1.5168 -11.52,-1.5168 -8.3712,0 -19.4688,-1.92 -27.52,0.4096 m -327.04,261.99042 c -11.1424,-3.1296 -23.296,-0.2304 -27.8592,11.52 -3.3984,8.7424 -1.5808,20.2112 -1.5808,29.44 v 51.2 c 0,8.16 -1.4208,17.8496 1.5808,25.6 4.5952,11.8656 16.6656,15.0784 27.8592,11.52 4.416,18.6048 18.9056,37.16479 31.2576,51.19999 62.8416,71.3856 175.2192,76.8192 245.8624,14.112 16.3968,-14.56 29.9136,-32.3008 39.8336,-51.87199 3.4944,-6.8928 8.128,-15.2576 8.8064,-23.04 h -17.92 c -2.2336,0 -5.5168,-0.576 -7.5072,0.6592 -4.1856,2.592 -7.168,13.5296 -9.6768,17.9008 -6.848,11.9296 -15.2704,22.96319 -25.056,32.63999 -25.5232,25.2288 -62.3168,42.4448 -98.56,42.88 -25.28,0.3008 -49.6064,-4.48 -72.32,-15.84 -19.3024,-9.6576 -36.4608,-23.6096 -49.92,-40.47999 -55.6672,-69.7984 -36.1984,-173.792 39.68,-220.2816 18.4128,-11.2832 38.8288,-17.7664 60.16,-20.5376 18.2912,-2.3808 37.2352,-0.6976 55.04,4.1152 18.1248,4.9024 35.6096,13.2288 50.56,24.64 22.3232,17.0432 37.3824,38.4704 49.28,63.584 6.7776,-6.9888 11.5264,-11.7184 21.76,-12.16 -5.5168,-19.1488 -20.5632,-37.5808 -33.8624,-51.84 -64.9856,-69.6768 -174.9824,-70.3872 -244.5376,-7.7888 -17.1904,15.4688 -37.3824,39.68 -42.88,62.8288 m 266.24,90.88 h -0.64 c -1.6256,1.6192 -3.2128,3.3984 -5.12,4.704 -9.4848,6.5024 -16.3968,-6.2592 -23.04,-10.72 -5.6064,-3.7696 -12.6784,-4.8192 -19.2,-3.2448 -9.888,2.3872 -15.3152,16.48 -25.6,15.5904 -5.7344,-0.4928 -9.4592,-6.5536 -13.44,-10.0544 -5.7984,-5.0944 -12.9088,-7.0272 -20.48,-5.7792 -10.8032,1.7792 -16.8064,17.0816 -27.52,15.7824 -5.7152,-0.6912 -9.504,-6.4448 -13.44,-10.0608 -4.2816,-3.9296 -10.0992,-6.4512 -16,-6.2912 -6.6304,0.1792 -12.48,3.1232 -17.28,7.5712 -4.1152,3.8144 -7.8016,9.376 -14.08,8.832 -10.1696,-0.8768 -14.8672,-14.9312 -26.24,-15.9296 -0.077,-8.9152 -1.3824,-17.9264 -0.5312,-26.88 2.048,-21.5104 9.9584,-42.112 22.7584,-59.52 35.776,-48.6336 104.9728,-62.56 156.3328,-30.6816 22.8352,14.176 37.4592,34.2912 48.64,58.2016 l 10.88,-5.12 c -2.208,-14.7136 -15.5264,-31.2896 -25.5744,-41.5936 -32.0512,-32.8576 -77.0368,-47.8592 -122.2656,-38.7584 -76.3584,15.3664 -120.8896,97.28 -96.64,169.952 7.5392,22.5984 21.5104,42.6944 39.68,58.04799 40.8832,34.56 102.9504,40.4032 149.12,12.864 19.072,-11.3728 35.3984,-26.72639 46.7136,-45.95199 2.7712,-4.7104 9.376,-13.5168 8.9088,-19.2 -0.8512,-10.3872 -9.4208,-15.2448 -15.9424,-21.76 m -71.68,-96.16 c -7.808,2.9248 -3.1808,14.2848 4.4544,11.2064 6.976,-2.816 2.368,-13.76 -4.4544,-11.2064 m 121.6,33.44 v 0.64 c -9.1072,0 -25.152,-3.0784 -33.28,1.3696 -7.3664,4.032 -6.7584,16.0768 1.92,17.8304 v 0.64 c -4.2688,0 -8.704,-0.416 -12.096,2.7008 -8.192,7.552 -0.01,17.0624 8.896,17.1392 v 0.64 c -7.4496,2.5408 -8.8,13.0496 -1.9072,17.2736 4.4608,2.7392 12.2048,1.2864 17.2672,1.2864 v 0.64 c -8.128,3.584 -9.7856,15.712 0,18.784 4.0128,1.2544 9.2672,0.416 13.44,0.416 h 28.16 c 16.3904,0 35.9744,2.9056 51.84,-1.5552 5.4592,-1.536 10.6496,-3.8208 15.36,-6.9952 2.8608,-1.9264 5.4976,-5.1904 8.96,-5.9776 6.6368,-1.4976 14.9568,-0.192 21.76,-0.192 h 45.44 v -68.48 h -46.08 c -6.8032,0 -15.1232,1.3056 -21.76,-0.192 -7.232,-1.6384 -13.6768,-9.3632 -21.12,-11.9168 -12.352,-4.2368 -26.1632,-2.6112 -39.04,-2.6112 h -25.6 c -3.7632,0 -8.608,-0.7936 -12.16,0.6464 -8.1152,3.2896 -7.9616,14.7648 0,17.9136 m -145.28,-13.0496 c -13.216,0.8192 -11.9488,21.4272 1.28,20.5952 13.3376,-0.8448 12.0768,-21.4208 -1.28,-20.5952 m 17.92,29.3888 c -18.2784,4.2176 -11.1232,32.224 7.04,28.0256 18.2784,-4.224 11.1616,-32.224 -7.04,-28.0256 m 84.48,57.2608 c -3.7824,13.8688 -11.9424,27.424 -21.0688,38.4 -47.2704,56.85119 -137.3504,55.78239 -183.4432,-1.92 -9.9264,-12.4224 -17.0752,-26.976 -21.408,-42.24 10.8928,7.6736 19.1488,18.912 33.92,11.5264 7.6416,-3.8208 12.3904,-14.7776 21.76,-14.0288 6.0992,0.4928 9.92,6.304 14.08,10.1248 3.9872,3.6608 8.704,5.7344 14.08,6.2656 14.2528,1.4016 18.1568,-14.752 30.08,-16.3264 7.6288,-1.0048 11.0336,4.8832 16,9.3696 4.4288,3.9872 9.9904,6.7008 16,7.0144 13.5936,0.7168 17.4784,-14.2656 28.8,-16.2944 9.76,-1.7472 14.4064,9.0112 21.76,13.2544 11.1872,6.464 19.9168,0.8064 29.44,-5.1456"
       id="path74"
       inkscape:connector-curvature="0"
       sodipodi:nodetypes="ccscsccscscccscsccscscscsccscsccscccscscsccscsccscscscsccccccssccscccscsscccssscccscsccccccccccccsccccccscccccscccccccccccccccccccccscccccccccsscccsccsccsssccccccccsccsccccccccc" />
  </g>
</svg>
