<?xml version="1.0" encoding="UTF-8" standalone="no"?><!DOCTYPE svg PUBLIC "-//W3C//DTD SVG 1.1//EN" "http://www.w3.org/Graphics/SVG/1.1/DTD/svg11.dtd"><svg width="100%" height="100%" viewBox="0 0 4913 1179" version="1.1" xmlns="http://www.w3.org/2000/svg" xmlns:xlink="http://www.w3.org/1999/xlink" xml:space="preserve" xmlns:serif="http://www.serif.com/" style="fill-rule:evenodd;clip-rule:evenodd;stroke-linejoin:round;stroke-miterlimit:2;"><path d="M4506.43,589.458c216.914,-177.383 343.333,-398.984 401.198,-520.287c17.748,-37.187 -16.328,-78.437 -56.002,-67.33c-353.464,99.011 -678.959,358.19 -834.831,496.901c-379.675,-139.544 -1298.75,-428.138 -2406.76,-428.138c-1162.19,0 -1502.16,317.526 -1592.66,447.513c-21.966,31.575 -23.345,73.242 -2.799,105.755c68.399,108.19 287.057,359.675 887.383,479.232c104.818,-212.279 199.531,-494.466 177.878,-797.513c0,0 92.435,365.299 -91.29,813.32c183.907,30.821 400.417,49.623 655.469,49.623c1075.43,0 1973.57,-332.995 2358.54,-501.133c149.531,134.909 484.323,407.5 849.063,509.661c39.674,11.12 73.75,-30.143 56.002,-67.331c-57.865,-121.302 -184.284,-342.903 -401.198,-520.273Zm-3786.38,-96.341c0,58.49 -47.409,105.899 -105.886,105.899c-58.489,0 -105.898,-47.409 -105.898,-105.899c0,-58.477 47.409,-105.885 105.898,-105.885c58.477,0 105.886,47.408 105.886,105.885Z" style="fill:#fff;fill-rule:nonzero;"/><path d="M662.329,493.117c0,26.615 -21.563,48.177 -48.165,48.177c-26.601,0 -48.177,-21.562 -48.177,-48.177c0,-26.589 21.576,-48.164 48.177,-48.164c26.602,0 48.165,21.575 48.165,48.164Z" style="fill:#fff;fill-rule:nonzero;"/></svg>