<?xml version="1.0" encoding="UTF-8" standalone="no"?><!DOCTYPE svg PUBLIC "-//W3C//DTD SVG 1.1//EN" "http://www.w3.org/Graphics/SVG/1.1/DTD/svg11.dtd"><svg width="100%" height="100%" viewBox="0 0 353 689" version="1.1" xmlns="http://www.w3.org/2000/svg" xmlns:xlink="http://www.w3.org/1999/xlink" xml:space="preserve" xmlns:serif="http://www.serif.com/" style="fill-rule:evenodd;clip-rule:evenodd;stroke-linejoin:round;stroke-miterlimit:2;"><g><path d="M83.438,688.438l262.5,0c3.75,0 6.875,-3.125 6.875,-6.875c0,-3.75 -3.125,-6.875 -6.875,-6.875l-15,0c-20.313,-24.375 -39.063,-54.688 -55,-90.938l0.937,0c2.188,0 4.063,-0.938 5.313,-2.5c1.25,-1.563 1.875,-3.75 1.25,-5.625l-6.875,-28.438c-0.625,-3.125 -3.438,-5 -6.563,-5l-10.625,0c-10.937,-30 -20.312,-63.125 -28.437,-99.062l1.25,0c1.875,0 4.062,-0.938 5.312,-2.5c1.25,-1.563 1.875,-3.75 1.25,-5.625l-5.625,-28.438c-0.625,-2.812 -2.812,-4.687 -5.312,-5.312l-5.625,0c-25.938,-137.813 -26.25,-272.5 -25.625,-303.125l15.625,0c3.75,0 6.875,-3.125 6.875,-6.875c0,-3.75 -3.125,-6.875 -6.875,-6.875l-3.75,0l-4.375,-29.688c-0.625,-3.437 -3.438,-5.625 -6.563,-5.625l-12.187,0l0,-42.187c0,-3.75 -3.125,-6.875 -6.875,-6.875c-3.75,0 -6.875,3.125 -6.875,6.875l0,42.188l-12.188,-0.001c-3.437,0 -6.25,2.5 -6.562,5.625l-4.375,29.688l-3.75,0c-3.75,0 -6.875,3.125 -6.875,6.875c0,3.75 3.125,6.875 6.875,6.875l16.25,0c0.312,23.438 0.312,107.813 -11.563,208.125c-0.937,1.563 -1.25,3.75 -0.625,5.625c-3.437,28.75 -7.812,59.063 -13.75,89.375l-5.937,0c-2.813,0.625 -5,2.5 -5.313,5.313l-5.625,28.437c-0.312,1.875 0,4.063 1.25,5.625c1.25,1.563 3.125,2.5 5.313,2.5l1.875,0c-8.125,35.938 -17.813,69.063 -28.438,99.063l-11.25,0c-3.125,0 -5.937,2.187 -6.562,5l-6.875,28.437c-0.625,1.875 0,4.063 1.25,5.625c1.25,1.563 3.125,2.5 5.312,2.5l0.938,0c-0.313,0.625 -0.625,1.563 -0.625,2.188c-15.938,35 -34.063,64.687 -54.063,88.437l-19.375,0c-3.75,0 -6.875,3.125 -6.875,6.875c0,3.75 3.125,6.875 6.875,6.875l76.563,0l0,0.313Zm154.062,-13.438l-142.5,0c4.375,-8.75 11.563,-23.125 19.688,-42.813c0,0 0,-0.312 0.312,-0.312c5.625,-13.438 11.563,-29.063 18.125,-47.5l90.625,0c15.625,45.313 30.313,75.938 37.813,90.938l-24.063,0l0,-0.313Zm-150.937,-72.187l12.187,23.437l-31.875,13.125c6.875,-11.562 13.438,-23.75 19.688,-36.562Zm7.187,-15.313c0.313,-0.938 0.938,-2.188 1.25,-3.125l23.125,0c-3.75,10.625 -7.5,20.313 -10.937,29.375l-13.438,-26.25Zm195.313,51.563l-32.188,-12.813l12.5,-23.75c6.25,12.813 12.813,25 19.688,36.563Zm-27.813,-54.688c0.313,0.938 0.625,1.875 1.25,2.5l-14.062,26.563c-3.438,-8.75 -7.188,-18.75 -10.938,-29.375l23.75,0l0,0.312Zm15,90.625c-2.812,-5.313 -8.75,-16.25 -15.937,-33.125l41.25,16.562c4.062,5.938 8.125,11.25 12.187,16.563l-37.5,0Zm-112.5,-201.25c0,-0.313 0.313,-0.625 0.313,-1.25c2.187,-9.688 4.375,-19.688 6.25,-29.688l15.312,0c1.875,9.375 3.75,18.438 5.938,27.813c-0.313,1.563 0,3.125 0.937,4.688c5.313,22.812 10.938,45 17.188,66.875l-63.75,0c6.562,-22.188 12.5,-45 17.812,-68.438Zm60,68.438c-4.062,-13.438 -7.812,-27.188 -11.25,-40.938l30,38.437c0.625,0.625 1.25,1.25 2.188,1.875c0,0.313 0.312,0.625 0.312,0.938l-21.25,0l0,-0.313Zm9.375,-36.562l-28.125,-35.938c-1.875,-8.75 -3.75,-17.5 -5.625,-26.562l17.5,0c4.688,21.875 10.313,42.813 16.25,62.5Zm-34.375,-104.688l-17.812,-43.75l17.5,-16.562c2.812,19.688 5.937,40 9.687,60.313l-9.375,0Zm-25.312,-258.438l10,12.813c0.312,10.625 0.625,22.5 1.25,35.312l-14.375,23.125c1.875,-27.188 2.5,-51.563 3.125,-71.25Zm-6.25,114.375l22.187,1.875c1.25,15.625 2.813,31.563 5,48.125l-27.5,-45.625c0,-1.25 0.313,-2.813 0.313,-4.375Zm20.937,-11.563l-20,-1.875l0,-0.625l17.5,-28.749c0.938,9.999 1.563,20.625 2.5,31.249Zm-26.25,64.688c0.938,-8.75 1.875,-17.5 2.813,-25.938l26.875,44.688l-15.938,15.313l-13.75,-34.063Zm3.125,44.063l-10.625,10.312c1.563,-9.063 2.813,-18.125 4.063,-26.875l6.562,16.563Zm-0.312,-291.563l26.562,0l3.125,21.875l-32.812,0l3.125,-21.875Zm17.812,35.625l0,35l-9.062,-11.875l0,-23.125l9.062,0Zm-31.562,288.125l19.687,-19.063l13.75,33.751l-36.25,0c0.938,-4.688 1.875,-9.688 2.813,-14.688Zm-15.938,28.438l85.625,0l3.125,15l-91.875,0l3.125,-15Zm4.375,28.437l16.875,0c-1.562,8.75 -3.437,17.188 -5.312,25.625l-27.188,35c5.938,-19.375 10.938,-39.688 15.625,-60.625Zm-27.187,97.188c0.312,-0.313 0.625,-0.625 0.937,-0.938l30.313,-39.063c-3.75,14.063 -7.5,28.125 -11.563,41.875l-20.312,0c0,-0.625 0.312,-1.25 0.625,-1.874Zm-20.938,15.312l173.125,0l3.75,15l-180.625,0l3.75,-15Zm-37.187,103.438l41.25,-17.188c-7.5,16.563 -13.125,27.813 -15.938,32.813l-36.875,0c4.063,-4.688 7.813,-10.001 11.563,-15.625Z"/></g></svg>