<?xml version="1.0" encoding="UTF-8" standalone="no"?><!DOCTYPE svg PUBLIC "-//W3C//DTD SVG 1.1//EN" "http://www.w3.org/Graphics/SVG/1.1/DTD/svg11.dtd"><svg width="100%" height="100%" viewBox="0 0 973 1282" version="1.1" xmlns="http://www.w3.org/2000/svg" xmlns:xlink="http://www.w3.org/1999/xlink" xml:space="preserve" xmlns:serif="http://www.serif.com/" style="fill-rule:evenodd;clip-rule:evenodd;stroke-linejoin:round;stroke-miterlimit:2;"><g id="Layer-1" serif:id="Layer 1"><g id="g2613"><path id="path2607" d="M928.746,0c24.555,0 44.253,19.797 44.253,43.927l0,150.574l-970.577,0l0,-150.248c0,-24.116 19.697,-43.814 43.927,-43.814l882.397,-0.439Zm-640.67,146.368c26.552,0 48.233,-22.021 48.233,-48.686c0,-26.552 -21.681,-48.345 -48.233,-48.345c-26.665,0 -48.232,21.793 -48.232,48.345c0,26.665 21.567,48.686 48.232,48.686Zm-142.162,0c26.991,0 48.233,-22.021 48.233,-48.686c0,-26.552 -21.242,-48.345 -48.233,-48.345c-26.551,0 -48.232,21.793 -48.232,48.345c0,26.665 21.681,48.686 48.232,48.686Z" style="fill:#fff;fill-rule:nonzero;"/><path id="path2609" d="M0,1280.9l0,-974.345c0,-24.229 19.797,-43.927 43.927,-43.927l882.738,0c24.229,0 43.927,19.698 43.927,43.927l0,974.671l-970.592,-0.326Zm480.255,-221.591c172.593,0 312.645,-140.066 312.645,-312.645c0,-172.58 -140.066,-312.66 -312.645,-312.66c-172.693,0 -312.533,140.066 -312.533,312.645c0,172.58 139.826,312.66 312.533,312.66Z" style="fill:#fff;fill-rule:nonzero;"/><path id="path2611" d="M733.382,825.522c6.641,-22.785 10.068,-46.802 10.068,-71.909c0,-144.923 -117.932,-262.417 -262.856,-262.417c-145.149,0 -262.756,117.494 -262.756,262.417c0,26.991 4.206,52.877 11.4,77.219l0,-0.438c16.823,-18.141 40.712,-29.653 67.59,-29.653c23.337,0 44.253,8.411 60.51,22.898l-0.326,0c16.37,-14.487 37.725,-22.898 60.849,-22.898c24.003,0 46.024,9.176 62.394,24.781l0,-0.325c16.256,-15.28 38.05,-24.456 62.279,-24.456c24.895,0 47.794,9.842 63.951,25.886l0,-0.326c16.257,-16.044 38.716,-25.56 63.725,-25.56c24.116,0 46.575,9.516 62.846,25.107l0.326,-0.326Z" style="fill:#fff;fill-rule:nonzero;"/></g></g></svg>